#!OML:ASF F:\VICON\USERDATA\INSTALL\rory3\rory3.ASF
:FULLY-SPECIFIED
:DEGREES
115
root 1.35641 17.5413 26.5094 -155.434 -8.71486 -177.484
lowerback -5.6525 -1.69188 1.15087
upperback -8.41045 -3.08299 3.26385
thorax -5.45396 -1.89524 2.76566
lowerneck -14.587 0.619082 -1.27946
upperneck 27.9734 -0.616559 0.806975
head 11.526 -0.908267 0.308969
rclavicle 2.68608e-014 -1.51076e-014
rhumerus -140.458 -50.198 115.273
rradius 12.6356
rwrist 88.7562
rhand -21.2163 13.4088
rfingers 7.12502
rthumb 5.16546 -16.5083
lclavicle 2.68608e-014 -1.51076e-014
lhumerus 8.52483 -6.45257 50.7087
lradius 15.0036
lwrist -55.8543
lhand -10.8907 29.6531
lfingers 7.12502
lthumb 15.1258 59.0803
rfemur -59.8514 -3.67843 30.7283
rtibia 60.5233
rfoot -3.24054 -19.3329
rtoes 15.4093
lfemur -25.9729 0.611254 -19.645
ltibia 46.9529
lfoot 13.795 18.1423
ltoes -19.1457
116
root 1.36365 17.5452 26.3797 -155.583 -8.61776 -177.594
lowerback -5.62328 -1.64413 1.23404
upperback -8.2753 -2.99972 3.21078
thorax -5.33514 -1.84997 2.6585
lowerneck -14.7226 0.565767 -1.63866
upperneck 27.961 -0.62131 0.963409
head 11.5495 -0.922133 0.428581
rclavicle -1.73937e-014 4.49253e-014
rhumerus -137.53 -50.8979 110.127
rradius 12.2669
rwrist 84.3473
rhand -20.6254 14.0525
rfingers 7.12502
rthumb 5.73603 -15.8498
lclavicle -1.73937e-014 4.49253e-014
lhumerus 5.87297 -4.12852 52.7579
lradius 14.6733
lwrist -54.0345
lhand -12.5141 29.6183
lfingers 7.12502
lthumb 13.5615 59.1566
rfemur -58.952 -3.68689 30.782
rtibia 60.9829
rfoot -1.89637 -19.9603
rtoes 15.3551
lfemur -26.4503 0.918758 -19.3039
ltibia 48.3974
lfoot 16.9741 15.9413
ltoes -22.3353
117
root 1.37388 17.5364 26.2466 -155.718 -8.5902 -177.683
lowerback -5.43588 -1.59204 1.38279
upperback -8.4951 -2.95343 3.09017
thorax -5.69088 -1.84887 2.47263
lowerneck -13.8548 0.616367 -1.8087
upperneck 27.768 -0.617025 1.12713
head 11.2999 -0.939939 0.516918
rclavicle -9.31803e-015 -3.18055e-015
rhumerus -131.137 -53.1563 100.818
rradius 11.8215
rwrist 77.4149
rhand -20.7906 13.6005
rfingers 7.12502
rthumb 5.57651 -16.3062
lclavicle -9.31803e-015 -3.18055e-015
lhumerus 2.29682 -4.88763 54.0626
lradius 14.9302
lwrist -48.4074
lhand -14.4491 29.1321
lfingers 7.12502
lthumb 11.696 58.7856
rfemur -57.9791 -3.52621 30.8022
rtibia 61.2656
rfoot -0.0839824 -20.57
rtoes 14.4255
lfemur -27.015 1.29076 -18.9451
ltibia 50.0639
lfoot 19.4064 13.5585
ltoes -24.8294
118
root 1.38604 17.5163 26.1107 -155.784 -8.60461 -177.748
lowerback -5.8005 -1.68517 1.4694
upperback -8.36576 -3.08536 3.06358
thorax -5.34808 -1.91822 2.36896
lowerneck -13.4049 0.728107 -1.78939
upperneck 27.4096 -0.42577 1.04685
head 11.0696 -0.855604 0.512161
rclavicle 1.799e-014 3.18055e-015
rhumerus -126.887 -54.6313 93.4408
rradius 11.4343
rwrist 71.7387
rhand -21.22 13.1565
rfingers 7.12502
rthumb 5.16195 -16.7606
lclavicle 1.799e-014 3.18055e-015
lhumerus -1.41095 -8.04943 55.0205
lradius 16.0723
lwrist -38.9684
lhand -15.6222 29.403
lfingers 7.12502
lthumb 10.5646 59.1174
rfemur -56.9658 -3.17852 30.7605
rtibia 61.2774
rfoot 1.39066 -21.0727
rtoes 13.2098
lfemur -27.717 1.65175 -18.5891
ltibia 51.9272
lfoot 20.7563 11.8522
ltoes -24.0481
119
root 1.40065 17.4859 25.9777 -155.812 -8.50363 -178.019
lowerback -6.11636 -1.82671 1.26226
upperback -8.03565 -3.23932 3.02858
thorax -4.80508 -1.96632 2.4093
lowerneck -13.8181 0.80096 -1.81397
upperneck 27.3111 -0.21474 0.932449
head 11.1115 -0.75368 0.506549
rclavicle 3.66261e-014 3.1408e-014
rhumerus -120.426 -56.999 83.1242
rradius 11.0042
rwrist 64.3527
rhand -21.7493 12.6475
rfingers 7.12502
rthumb 4.65089 -17.2814
lclavicle 3.66261e-014 3.1408e-014
lhumerus -4.9693 -12.7412 56.2309
lradius 17.8424
lwrist -27.4062
lhand -16.6028 30.5797
lfingers 7.12502
lthumb 9.61864 60.3401
rfemur -55.9405 -2.68505 30.3877
rtibia 61.0491
rfoot 2.29076 -21.3485
rtoes 13.0908
lfemur -28.5061 2.1321 -18.561
ltibia 53.9747
lfoot 22.7305 11.4113
ltoes -17.9192
120
root 1.41896 17.4458 25.8426 -155.859 -8.5701 -178.298
lowerback -6.47399 -2.09364 1.03675
upperback -7.70965 -3.56086 3.02865
thorax -4.23647 -2.09909 2.48821
lowerneck -13.8968 -0.798213 -1.37439
upperneck 27.0374 0.669172 0.255378
head 11.0265 0.758078 0.527662
rclavicle -7.43455e-014 4.09496e-014
rhumerus -113.963 -59.0332 72.7072
rradius 10.7178
rwrist 58.1526
rhand -22.2402 11.8541
rfingers 7.12502
rthumb 4.17679 -18.0847
lclavicle -7.43455e-014 4.09496e-014
lhumerus -8.9546 -16.6872 57.8604
lradius 19.7985
lwrist -16.3721
lhand -18.0232 31.1171
lfingers 7.12502
lthumb 8.24791 60.9361
rfemur -54.7404 -2.28473 30.0934
rtibia 60.6087
rfoot 2.04951 -21.3032
rtoes 14.9491
lfemur -29.3992 2.62383 -18.5534
ltibia 56.1759
lfoot 19.0902 10.7551
ltoes -25.8671
121
root 1.43985 17.3886 25.7042 -155.93 -8.66523 -178.485
lowerback -6.97332 -2.37362 0.815821
upperback -7.25387 -3.88968 3.07188
thorax -3.44985 -2.23243 2.58892
lowerneck -14.1492 -0.506177 -1.1572
upperneck 26.7487 1.01774 0.0491772
head 10.9665 0.886461 0.456388
rclavicle -5.06404e-014 4.41302e-014
rhumerus -101.607 -61.3229 55.5392
rradius 10.5059
rwrist 49.5862
rhand -22.3935 10.7918
rfingers 7.12502
rthumb 4.02883 -19.1499
lclavicle -5.06404e-014 4.41302e-014
lhumerus -13.0852 -19.7386 59.8441
lradius 22.0051
lwrist -6.01772
lhand -19.5821 31.7017
lfingers 7.12502
lthumb 6.74321 61.5744
rfemur -53.3689 -1.99124 30.044
rtibia 60.0496
rfoot 0.647297 -20.841
rtoes 18.1063
lfemur -30.3906 3.31914 -18.5352
ltibia 58.4702
lfoot 17.1918 9.41722
ltoes -30.0787
122
root 1.46159 17.3255 25.5547 -155.925 -8.62885 -178.826
lowerback -7.51954 -2.62728 0.397661
upperback -6.80277 -4.17124 2.98418
thorax -2.64196 -2.33894 2.65833
lowerneck -14.7193 -0.202784 -0.728317
upperneck 26.5934 1.30794 -0.110098
head 11.0221 1.01087 0.361592
rclavicle 3.08116e-015 -3.37934e-014
rhumerus -82.2607 -61.4547 30.4442
rradius 10.6278
rwrist 37.9581
rhand -22.1928 9.47082
rfingers 7.12502
rthumb 4.22264 -20.4671
lclavicle 3.08116e-015 -3.37934e-014
lhumerus -17.2484 -22.0276 61.9669
lradius 24.4487
lwrist 3.18224
lhand -20.5877 32.6369
lfingers 7.12502
lthumb 5.77238 62.5383
rfemur -51.9953 -1.66352 29.8183
rtibia 59.4648
rfoot -1.55629 -20.4833
rtoes 20.0015
lfemur -31.4813 4.03749 -18.7294
ltibia 60.6959
lfoot 17.534 8.9198
ltoes -28.7158
123
root 1.48109 17.2604 25.3988 -155.885 -8.5988 -179.271
lowerback -7.91345 -2.91409 -0.131001
upperback -6.64281 -4.51506 2.90162
thorax -2.21213 -2.48901 2.81173
lowerneck -14.478 0.0338183 -0.438612
upperneck 26.3501 1.57424 -0.217987
head 10.8848 1.14223 0.304108
rclavicle -1.38155e-014 -2.74323e-014
rhumerus -61.8074 -56.6515 3.75246
rradius 11.27
rwrist 24.3873
rhand -21.6607 7.96975
rfingers 7.12502
rthumb 4.73643 -21.9573
lclavicle -1.38155e-014 -2.74323e-014
lhumerus -21.783 -22.8652 64.2849
lradius 26.4336
lwrist 10.0782
lhand -21.4658 33.8702
lfingers 7.12502
lthumb 4.92459 63.793
rfemur -50.6114 -1.41614 29.5268
rtibia 58.9516
rfoot -3.98304 -20.3401
rtoes 18.6676
lfemur -32.6635 4.57153 -19.0545
ltibia 62.743
lfoot 15.7057 8.92047
ltoes -28.4057
124
root 1.50526 17.1896 25.244 -155.765 -8.63638 -179.841
lowerback -8.14583 -3.2979 -0.824253
upperback -6.68069 -4.9933 2.87497
thorax -2.04977 -2.70894 3.12224
lowerneck -14.1782 0.275348 -0.360602
upperneck 26.4014 1.94443 -0.267845
head 10.8457 1.32429 0.322352
rclavicle 2.52457e-014 7.7526e-015
rhumerus -49.0081 -48.7267 -15.2408
rradius 12.511
rwrist 12.0071
rhand -20.7962 6.21134
rfingers 7.12502
rthumb 5.57109 -23.6954
lclavicle 2.52457e-014 7.7526e-015
lhumerus -26.5033 -22.7983 66.6457
lradius 27.9055
lwrist 15.0905
lhand -21.922 34.9431
lfingers 7.12502
lthumb 4.48408 64.8756
rfemur -49.292 -1.14788 29.1288
rtibia 58.5773
rfoot -6.90092 -20.1797
rtoes 17.8156
lfemur -34.0343 4.97043 -19.5096
ltibia 64.5899
lfoot 14.2683 8.26045
ltoes -29.1222
